# xmcd
#
# Track frame offsets:
#	150
#	14115
#	28709
#	49588
#	67371
#	85371
#
# Disc length: 1288 seconds
#
# Revision: 1
# Processed by: cddbd v1.5.2PL0 Copyright (c) Steve Scherf et al.
# Submitted via: audiograbber 1.83.01
#
DISCID=53050606
DTITLE=The Hidden Charms - Miss Me When I'm Gone
DYEAR=2006
DGENRE=Blues Rock
TTITLE0=Puttin The Best On The Outside
TTITLE1=Checkin Upon My Baby
TTITLE2=You Hurt Me
TTITLE3=When I'm Gone
TTITLE4=Alphabet Blues
TTITLE5=I Can Move On
EXTD=
EXTT0=
EXTT1=
EXTT2=
EXTT3=
EXTT4=
EXTT5=
PLAYORDER=
